<?xml version="1.0" encoding="iso-8859-1"?>
<!-- Generator: Adobe Illustrator 17.1.0, SVG Export Plug-In . SVG Version: 6.00 Build 0)  -->
<!DOCTYPE svg PUBLIC "-//W3C//DTD SVG 1.1//EN" "http://www.w3.org/Graphics/SVG/1.1/DTD/svg11.dtd">
<svg version="1.1" id="Capa_1" xmlns="http://www.w3.org/2000/svg" xmlns:xlink="http://www.w3.org/1999/xlink" x="0px" y="0px"
	 viewBox="0 0 220.707 220.707" style="enable-background:new 0 0 220.707 220.707;" xml:space="preserve">
<path d="M110.354,0C49.504,0,0,49.504,0,110.354s49.504,110.354,110.354,110.354s110.354-49.504,110.354-110.354
	S171.203,0,110.354,0z M111.043,124.133c-7.019-0.009-12.723-5.727-12.713-12.747c0.009-7.01,5.72-12.713,12.747-12.713
	c3.4,0.004,6.595,1.333,8.997,3.74s3.721,5.606,3.717,9.006c-0.009,7.01-5.72,12.714-12.73,12.714H111.043z M111.06,22.98
	c2.761,0,5,2.239,5,5v61.264c-1.623-0.363-3.293-0.569-5-0.571c-1.718,0-3.389,0.198-5,0.561V27.98
	C106.06,25.219,108.298,22.98,111.06,22.98z M168.581,116.403h-35.353c0.361-1.601,0.559-3.263,0.561-4.971
	c0.002-1.715-0.204-3.395-0.57-5.029h35.361c2.761,0,5,2.239,5,5S171.342,116.403,168.581,116.403z"/>
<g>
</g>
<g>
</g>
<g>
</g>
<g>
</g>
<g>
</g>
<g>
</g>
<g>
</g>
<g>
</g>
<g>
</g>
<g>
</g>
<g>
</g>
<g>
</g>
<g>
</g>
<g>
</g>
<g>
</g>
</svg>
